#!OML:ASF F:\VICON\USERDATA\INSTALL\rory3\rory3.ASF
:FULLY-SPECIFIED
:DEGREES
1176
root 0.417416 16.7298 3.3925 16.4373 1.71718 -5.86985
lowerback -3.57051 -3.2038 4.42307
upperback -4.86444 -4.28779 2.80373
thorax -3.13297 -2.24322 0.395273
lowerneck -4.97108 -13.7973 -12.8825
upperneck 9.34863 -18.1175 6.25489
head 5.35122 -9.04544 2.55373
rclavicle 4.71244e-014 5.36719e-015
rhumerus -25.5286 28.6562 -85.1413
rradius 31.8777
rwrist 9.78729
rhand -22.4927 -42.2239
rfingers 7.12502
rthumb 3.93304 -72.1673
lclavicle 4.71244e-014 5.36719e-015
lhumerus -52.4745 -23.0831 87.1913
lradius 48.6539
lwrist 0.150511
lhand -37.6274 -49.7167
lfingers 7.12502
lthumb -10.6798 -20.0081
rfemur -44.3985 1.95266 13.1824
rtibia 65.5571
rfoot 1.62094 -2.89782
rtoes -33.3248
lfemur -36.8362 3.54475 -6.27574
ltibia 54.9457
lfoot -16.4034 7.12074
ltoes -32.3513
1177
root 0.388073 16.4308 3.3399 16.3438 2.12368 -5.98034
lowerback -3.08767 -3.17554 4.42648
upperback -4.9464 -4.21462 2.81529
thorax -3.48709 -2.21106 0.440686
lowerneck -4.27252 -13.9291 -13.1283
upperneck 8.41846 -18.3788 6.7774
head 5.04393 -9.16906 2.79
rclavicle 1.57537e-014 -2.28602e-014
rhumerus -24.7407 28.0367 -85.0076
rradius 31.4806
rwrist 10.3051
rhand -23.822 -42.7996
rfingers 7.12502
rthumb 2.64926 -72.7629
lclavicle 1.57537e-014 -2.28602e-014
lhumerus -52.271 -22.4887 86.6756
lradius 48.1653
lwrist -0.775294
lhand -37.6058 -50.4238
lfingers 7.12502
lthumb -10.659 -20.7142
rfemur -43.5896 1.88003 13.2679
rtibia 65.8388
rfoot -3.62058 -4.21083
rtoes -36.4207
lfemur -38.1892 5.2292 -6.21272
ltibia 57.509
lfoot -20.2195 7.45846
ltoes -29.2773
1178
root 0.383176 16.1759 3.30399 16.2488 2.54682 -6.03377
lowerback -2.62202 -3.15012 4.81916
upperback -5.02142 -4.14973 2.70895
thorax -3.86502 -2.19952 0.149442
lowerneck -4.33425 -14.1711 -13.2733
upperneck 8.2478 -18.7041 7.00548
head 5.06764 -9.31892 2.83817
rclavicle -1.48343e-014 4.67144e-015
rhumerus -23.9147 27.4088 -84.9231
rradius 31.0479
rwrist 10.7689
rhand -24.6431 -44.4515
rfingers 7.12502
rthumb 1.8563 -74.4232
lclavicle -1.48343e-014 4.67144e-015
lhumerus -51.9467 -21.9911 86.0646
lradius 47.568
lwrist -1.55175
lhand -37.7891 -50.6146
lfingers 7.12502
lthumb -10.8358 -20.9141
rfemur -42.6695 1.25317 13.3767
rtibia 66.6909
rfoot -6.7828 -6.6346
rtoes -42.9422
lfemur -39.2939 6.57251 -6.38045
ltibia 59.7279
lfoot -23.7996 7.82638
ltoes -25.4817
1179
root 0.35721 15.9234 3.22636 16.3345 2.17134 -4.61486
lowerback -1.63113 -3.05239 3.19963
upperback -5.31394 -3.97474 2.25949
thorax -4.63492 -2.06865 0.650312
lowerneck -4.51642 -14.4058 -13.3559
upperneck 8.46616 -19.005 7.01637
head 5.20348 -9.46303 2.79448
rclavicle 4.58696e-014 1.80894e-014
rhumerus -23.2575 26.7716 -84.8723
rradius 30.7373
rwrist 11.0646
rhand -24.8206 -46.1015
rfingers 7.12502
rthumb 1.68482 -76.0746
lclavicle 4.58696e-014 1.80894e-014
lhumerus -51.6442 -21.3968 85.2847
lradius 46.9509
lwrist -2.51638
lhand -37.9934 -50.8992
lfingers 7.12502
lthumb -11.0329 -21.2092
rfemur -42.8464 0.937015 11.7572
rtibia 68.2602
rfoot -11.3502 -9.70086
rtoes -45.1023
lfemur -40.5353 7.5913 -8.27498
ltibia 61.582
lfoot -26.4477 9.08132
ltoes -23.6209
